<?xml version="1.0" encoding="UTF-8"?>
<svg id="Ebene_1" data-name="Ebene 1" xmlns="http://www.w3.org/2000/svg" viewBox="0 0 1010.12 1010.12">
  <defs>
    <style>
      .cls-1 {
        fill: #2ea836;
      }
    </style>
  </defs>
  <path class="cls-1" d="M265.34,782.03h651.68c9.31,0,17.84-3.88,25.6-11.65,7.76-7.76,11.63-16.29,11.63-25.6V93.1c0-9.31-3.88-17.84-11.63-25.6-7.76-7.76-16.29-11.63-25.6-11.63h-89.38v321.84c0,10.08-4.04,17.32-12.13,21.74-8.09,4.43-15.89,4-23.42-1.27l-59-34.57c-8.12-4.39-16.19-6.58-24.22-6.58s-15.54,2.19-22.56,6.58l-59,34.57c-8.53,5.27-16.57,5.7-24.1,1.27-7.52-4.42-11.29-11.66-11.29-21.74V55.87h-326.59c-9.31,0-17.84,3.88-25.6,11.63-7.77,7.76-11.65,16.29-11.65,25.6v651.68c0,9.31,3.88,17.84,11.65,25.6,7.76,7.77,16.29,11.65,25.6,11.65h0ZM265.34,837.88c-26.16,0-48.22-8.98-66.17-26.93-17.95-17.95-26.93-40.01-26.93-66.17V93.1c0-26.16,8.98-48.22,26.93-66.17C217.12,8.98,239.18,0,265.34,0h651.68c26.16,0,48.22,8.98,66.17,26.93s26.93,40.01,26.93,66.17v651.68c0,26.16-8.98,48.22-26.93,66.17-17.95,17.95-40.01,26.93-66.17,26.93H265.34ZM93.1,1010.12c-26.16,0-48.22-8.98-66.17-26.93-17.95-17.95-26.93-40.01-26.93-66.17V237.11c0-7.42,2.74-13.88,8.21-19.38s12.04-8.24,19.73-8.24,14.25,2.75,19.71,8.24c5.48,5.5,8.21,11.96,8.21,19.38v679.91c0,9.31,3.88,17.84,11.63,25.6,7.76,7.76,16.29,11.63,25.6,11.63h679.91c7.42,0,13.88,2.75,19.38,8.26,5.5,5.5,8.24,11.96,8.24,19.38,0,7.88-2.75,14.55-8.24,20.01-5.5,5.48-11.96,8.21-19.38,8.21H93.09h.01ZM228.09,55.87v726.16V55.87ZM591.92,378.04c0,9.85,3.76,16.99,11.29,21.41,7.53,4.43,15.57,4,24.1-1.27l59-34.57c6.96-4.39,14.52-6.58,22.69-6.58s16.21,2.19,24.08,6.58l59,34.57c7.52,5.27,15.33,5.7,23.42,1.27,8.09-4.42,12.13-11.55,12.13-21.41,0,9.85-3.92,16.99-11.75,21.41-7.84,4.43-15.71,4-23.62-1.27l-59.18-34.57c-8.12-4.39-16.19-6.58-24.22-6.58s-15.54,2.19-22.56,6.58l-58.83,34.57c-8.53,5.27-16.59,5.7-24.17,1.27-7.58-4.42-11.38-11.55-11.38-21.41Z"/>
</svg>