<?xml version="1.0" encoding="UTF-8"?>
<svg id="Ebene_1" data-name="Ebene 1" xmlns="http://www.w3.org/2000/svg" viewBox="0 0 1200 1200">
  <defs>
    <style>
      .cls-1 {
        fill: #580259;
      }
    </style>
  </defs>
  <path class="cls-1" d="M305.06,1143.44c-18.37,0-35.29-5.93-50.76-17.79-15.46-11.86-25.63-26.34-30.5-43.45-22.7-80.49-40.88-147.39-54.54-200.71-13.65-53.32-24.17-98.3-31.56-134.93-7.39-36.63-12.41-67.97-15.06-94.02-2.65-26.06-3.98-52.32-3.98-78.79,0-67.66,23.59-125.12,70.77-172.4,47.18-47.28,104.53-70.92,172.04-70.92h301.1c24.65-32.69,53.41-59.02,86.28-79,32.87-19.98,67.24-29.96,103.12-29.96,6.54,0,12.38,2.51,17.52,7.53,5.14,5.02,7.71,10.91,7.71,17.68,0,1.83-.42,3.6-1.25,5.33-.84,1.73-1.29,3.54-1.36,5.45-4.43,11.39-8.72,24.63-12.86,39.74-4.13,15.11-8.54,36.23-13.23,63.35l160.57,160.57h44.57c11.93,0,21.83,3.93,29.69,11.8,7.86,7.86,11.8,17.76,11.8,29.69v210.21c0,9.17-2.54,17.39-7.63,24.67-5.08,7.27-12.2,12.38-21.34,15.31l-114.2,37.55-70.08,233.33c-5.75,18.32-16,32.87-30.77,43.63-14.76,10.77-31.44,16.15-50.01,16.15h-53.8c-23.55,0-43.41-8.08-59.57-24.24-16.16-16.16-24.24-36.02-24.24-59.57v-25.14h-222.12v25.14c0,23.55-8.16,43.41-24.49,59.57-16.33,16.16-36.1,24.24-59.32,24.24,0,0-52.49,0-52.49,0ZM305.32,1093.16h52.23c9.43,0,17.37-3.15,23.84-9.44,6.46-6.28,9.68-14.31,9.68-24.09v-75.43h322.69v75.43c0,9.78,3.15,17.81,9.44,24.09,6.28,6.29,14.31,9.44,24.09,9.44h53.8c7.68,0,14.49-2.1,20.43-6.29,5.94-4.19,9.96-10.12,12.05-17.82l77.36-256.6,133.9-44.97v-196.08h-55.99l-189.17-188.83c0-16.18,1.36-33.76,4.09-52.75,2.72-18.98,6.88-36.45,12.46-52.41-25.6,6.92-49.26,20.27-71,40.06-21.74,19.79-38.09,40.87-49.05,63.25h-334.7c-53.17,0-98.55,18.84-136.13,56.52-37.59,37.69-56.39,83.19-56.39,136.5,0,36.29,8.86,97.31,26.59,183.04,17.72,85.74,42.79,189.14,75.2,310.19,2.1,7.68,6.47,13.97,13.1,18.85,6.64,4.89,13.8,7.34,21.48,7.34ZM824.56,640.55c10.58,0,19.9-3.95,27.98-11.84,8.06-7.9,12.09-17.14,12.09-27.72s-4.03-19.9-12.09-27.98c-8.07-8.06-17.4-12.09-27.98-12.09s-19.82,4.03-27.72,12.09c-7.89,8.07-11.84,17.4-11.84,27.98s3.95,19.82,11.84,27.72c7.9,7.89,17.14,11.84,27.72,11.84ZM633.88,516.92c7.09,0,13.1-2.37,18.02-7.12,4.92-4.75,7.38-10.67,7.38-17.76s-2.46-13.1-7.38-18.02c-4.92-4.92-10.93-7.38-18.02-7.38h-217.92c-7.09,0-13.01,2.46-17.76,7.38-4.75,4.92-7.12,10.93-7.12,18.02s2.37,13.01,7.12,17.76c4.75,4.75,10.67,7.12,17.76,7.12h217.92Z"/>
  <path class="cls-1" d="M530.53,256.47c-57.17,0-103.67-46.51-103.67-103.67s46.51-103.67,103.67-103.67,103.67,46.51,103.67,103.67-46.51,103.67-103.67,103.67Z"/>
</svg>