<?xml version="1.0" encoding="UTF-8"?>
<svg id="Ebene_1" data-name="Ebene 1" xmlns="http://www.w3.org/2000/svg" viewBox="0 0 899.12 1111.63">
  <defs>
    <style>
      .cls-1 {
        fill: #fff;
      }
    </style>
  </defs>
  <path class="cls-1" d="M690.69,848.48l-97.73-97.72c-4.52-4.53-9.88-6.72-16.06-6.55-6.18.18-11.59,2.58-16.22,7.21-4.63,4.63-6.95,10.26-6.95,16.9s2.29,12.13,6.88,16.5l125.78,126.81c7.98,8.14,17.46,12.21,28.44,12.21s20.71-4.07,29.18-12.21l126.9-126.9c4.53-4.3,6.83-9.8,6.88-16.48.04-6.69-2.25-12.51-6.88-17.48-4.97-4.63-10.77-6.95-17.41-6.95s-12.15,2.32-16.55,6.95l-97.23,97.72v-237.95c0-6.88-2.41-12.73-7.24-17.55s-10.68-7.23-17.57-7.23-12.65,2.41-17.28,7.23-6.95,10.67-6.95,17.55v237.95h0ZM555.56,1062.59h318.78c6.88,0,12.73,2.41,17.55,7.24,4.82,4.83,7.23,10.68,7.23,17.57s-2.41,12.65-7.23,17.28-10.67,6.95-17.55,6.95h-318.78c-6.88,0-12.64-2.33-17.29-6.99-4.65-4.66-6.97-10.43-6.97-17.32s2.32-12.73,6.97-17.53c4.65-4.8,10.41-7.2,17.29-7.2h0ZM81.74,899.11c-21.94,0-41.05-8.14-57.33-24.41-16.28-16.28-24.41-35.38-24.41-57.33V81.73c0-21.6,8.14-40.62,24.41-57.06C40.69,8.23,59.79,0,81.74,0h332.72c11.33,0,22.05,2.28,32.18,6.85s18.95,10.49,26.46,17.76l242,242c7.27,7.51,13.19,16.33,17.76,26.46s6.85,20.86,6.85,32.18v113.62c0,6.88-2.41,12.64-7.24,17.29s-10.68,6.97-17.57,6.97-12.65-2.32-17.28-6.97-6.95-10.41-6.95-17.29v-124.19h-204.39c-16.93,0-31.37-5.98-43.33-17.93-11.95-11.95-17.93-26.4-17.93-43.33V49.04H81.74c-8.52,0-16.1,3.4-22.74,10.21s-9.96,14.3-9.96,22.47v735.64c0,8.52,3.32,16.1,9.96,22.74s14.22,9.96,22.74,9.96h302.17c6.88,0,12.73,2.41,17.55,7.24s7.23,10.68,7.23,17.57-2.41,12.65-7.23,17.28-10.67,6.95-17.55,6.95H81.74ZM49.04,850.07V49.04v801.03h0Z"/>
</svg>