<?xml version="1.0" encoding="UTF-8"?>
<svg id="Ebene_1" data-name="Ebene 1" xmlns="http://www.w3.org/2000/svg" viewBox="0 0 1184.24 860.61">
  <defs>
    <style>
      .cls-1 {
        fill: #2ea836;
      }
    </style>
  </defs>
  <path class="cls-1" d="M27.41,860.61c-7.65,0-14.13-2.66-19.43-7.98-5.32-5.31-7.98-11.69-7.98-19.14s2.66-13.85,7.98-19.16c5.31-5.32,11.79-7.98,19.43-7.98h1129.99c7.21,0,13.49,2.67,18.83,8.02,5.34,5.34,8.01,11.61,8.01,18.82,0,7.65-2.67,14.13-8.01,19.43-5.35,5.32-11.62,7.98-18.83,7.98H27.41ZM162.47,748.51c-25.24,0-46.57-8.72-64-26.15-17.43-17.43-26.15-38.77-26.15-64.02V90.17c0-25.25,8.72-46.59,26.15-64.02S137.24,0,162.47,0h859.3c25.24,0,46.57,8.72,64,26.15s26.15,38.77,26.15,64.02v568.18c0,25.25-8.72,46.59-26.15,64.02s-38.77,26.15-64,26.15H162.47ZM162.72,694.28h858.8c9.04,0,17.32-3.77,24.86-11.31,7.53-7.53,11.3-15.82,11.3-24.86V90.41c0-9.04-3.77-17.32-11.3-24.86-7.53-7.54-15.82-11.31-24.86-11.31H162.72c-9.04,0-17.32,3.77-24.86,11.31-7.53,7.53-11.3,15.82-11.3,24.86v567.71c0,9.04,3.77,17.32,11.3,24.86s15.82,11.31,24.86,11.31h0ZM126.57,694.28V54.24v640.04Z"/>
  <path class="cls-1" d="M485.98,506.73v-255.1c0-8.11,2.74-14.62,8.22-19.55,5.49-4.93,11.85-7.4,19.09-7.4,2.26,0,4.64.26,7.13.77,2.49.51,4.93,1.39,7.31,2.66l200.35,128.55c4.09,3.08,7.22,6.48,9.39,10.2,2.16,3.72,3.24,7.88,3.24,12.5s-1.08,8.78-3.24,12.5-5.29,7.01-9.39,9.86l-200.35,128.55c-2.39,1.49-4.83,2.49-7.31,2.99-2.49.51-4.79.77-6.92.77-7.38,0-13.82-2.47-19.3-7.4-5.48-4.93-8.22-11.56-8.22-19.89h0Z"/>
</svg>