<?xml version="1.0" encoding="UTF-8"?>
<svg id="Ebene_1" data-name="Ebene 1" xmlns="http://www.w3.org/2000/svg" viewBox="0 0 1200 1200">
  <defs>
    <style>
      .cls-1 {
        fill: #580259;
      }
    </style>
  </defs>
  <path class="cls-1" d="M306.19,857.67c-68.18,0-126.02-23.75-173.53-71.24-47.51-47.49-71.26-105.31-71.26-173.48,0-68.16,23.75-126,71.26-173.54,47.51-47.54,105.35-71.31,173.53-71.31h186.26c7.6,0,14.19,2.8,19.78,8.4,5.59,5.6,8.39,12.21,8.39,19.81,0,8-2.8,14.78-8.39,20.35-5.59,5.57-12.19,8.36-19.78,8.36h-186.4c-51.85,0-96.1,18.33-132.75,54.98-36.64,36.64-54.96,80.94-54.96,132.88s18.32,96.24,54.96,132.88c36.64,36.65,80.89,54.98,132.75,54.98h186.4c7.6,0,14.19,2.8,19.78,8.4,5.59,5.6,8.39,12.2,8.39,19.8,0,8-2.8,14.79-8.39,20.37-5.59,5.57-12.19,8.36-19.78,8.36,0,0-186.26,0-186.26,0ZM423.67,640.87c-7.99,0-14.78-2.8-20.38-8.4-5.59-5.6-8.39-12.4-8.39-20.4s2.8-14.18,8.39-19.77c5.6-5.57,12.4-8.36,20.38-8.36h367.17c7.59,0,14.18,2.8,19.78,8.4,5.59,5.6,8.39,12.21,8.39,19.81,0,8-2.8,14.78-8.39,20.35-5.6,5.57-12.2,8.36-19.78,8.36h-367.17ZM722.05,857.67c-7.99,0-14.78-2.8-20.37-8.4-5.59-5.6-8.39-12.4-8.39-20.4s2.8-14.19,8.39-19.77c5.59-5.57,12.38-8.36,20.37-8.36h185.81c51.85,0,96.1-18.33,132.75-54.98,36.64-36.64,54.96-80.94,54.96-132.88,0-51.95-18.32-96.24-54.96-132.88-36.64-36.65-80.89-54.98-132.75-54.98h-185.81c-7.99,0-14.78-2.8-20.37-8.4-5.59-5.6-8.39-12.4-8.39-20.4s2.8-14.18,8.39-19.77c5.59-5.57,12.38-8.36,20.37-8.36h185.67c68.18,0,126.02,23.75,173.53,71.24,47.51,47.49,71.26,105.31,71.26,173.48,0,68.16-23.75,126-71.26,173.54-47.51,47.54-105.35,71.31-173.53,71.31h-185.67Z"/>
</svg>