<?xml version="1.0" encoding="UTF-8"?>
<svg id="Ebene_1" data-name="Ebene 1" xmlns="http://www.w3.org/2000/svg" viewBox="0 0 1091.11 489.58">
  <defs>
    <style>
      .cls-1 {
        fill: #2ea836;
      }
    </style>
  </defs>
  <path class="cls-1" d="M244.79,489.58c-68.18,0-126.02-23.75-173.53-71.24C23.75,370.85,0,313.03,0,244.86S23.75,118.86,71.26,71.32C118.77,23.78,176.61.01,244.79.01h186.26c7.6,0,14.19,2.8,19.78,8.4s8.39,12.21,8.39,19.81c0,8-2.8,14.78-8.39,20.35-5.59,5.57-12.19,8.36-19.78,8.36h-186.4c-51.85,0-96.1,18.33-132.75,54.98-36.64,36.64-54.96,80.94-54.96,132.88s18.32,96.24,54.96,132.88c36.64,36.65,80.89,54.98,132.75,54.98h186.4c7.6,0,14.19,2.8,19.78,8.4,5.59,5.6,8.39,12.2,8.39,19.8,0,8-2.8,14.79-8.39,20.37-5.59,5.57-12.19,8.36-19.78,8.36h-186.26ZM362.27,272.78c-7.99,0-14.78-2.8-20.38-8.4-5.59-5.6-8.39-12.4-8.39-20.4s2.8-14.18,8.39-19.77c5.6-5.57,12.4-8.36,20.38-8.36h367.17c7.59,0,14.18,2.8,19.78,8.4,5.59,5.6,8.39,12.21,8.39,19.81,0,8-2.8,14.78-8.39,20.35-5.6,5.57-12.2,8.36-19.78,8.36h-367.17ZM660.65,489.58c-7.99,0-14.78-2.8-20.37-8.4-5.59-5.6-8.39-12.4-8.39-20.4s2.8-14.19,8.39-19.77c5.59-5.57,12.38-8.36,20.37-8.36h185.81c51.85,0,96.1-18.33,132.75-54.98,36.64-36.64,54.96-80.94,54.96-132.88s-18.32-96.24-54.96-132.88c-36.64-36.65-80.89-54.98-132.75-54.98h-185.81c-7.99,0-14.78-2.8-20.37-8.4-5.59-5.6-8.39-12.4-8.39-20.4s2.8-14.18,8.39-19.77c5.59-5.57,12.38-8.36,20.37-8.36h185.67c68.18,0,126.02,23.75,173.53,71.24s71.26,105.31,71.26,173.48-23.75,126-71.26,173.54-105.35,71.31-173.53,71.31h-185.67Z"/>
</svg>