<?xml version="1.0" encoding="UTF-8"?>
<svg id="Ebene_1" data-name="Ebene 1" xmlns="http://www.w3.org/2000/svg" viewBox="0 0 1200 1200">
  <defs>
    <style>
      .cls-1 {
        fill: #580259;
      }
    </style>
  </defs>
  <path class="cls-1" d="M210.12,524.01l-135.36-77.74c-7.29-3.67-13.28-9.3-17.96-16.89-4.69-7.6-7.04-16.12-7.04-25.55v-154.91c0-8.83,2.35-17.09,7.04-24.78,4.68-7.7,10.66-13.39,17.94-17.06l135.57-78.75c7.22-3.91,15.37-5.87,24.47-5.87s17.23,2.06,24.44,6.17l135.62,78.47c7.28,3.67,13.27,9.35,17.96,17.05,4.68,7.69,7.02,15.95,7.02,24.78v155.14c0,9.09-2.34,17.48-7.02,25.18-4.69,7.69-10.68,13.37-17.96,17.05l-135.3,78.03c-7.39,4.39-15.63,6.59-24.73,6.59s-17.33-2.3-24.7-6.9ZM235.11,469.47l125.52-71.44v-142.88l-125.52-71.86-126.13,71.65v143.3s126.13,71.23,126.13,71.23ZM873.12,534.29v-67.96l135.38,79.32c15.34,9.28,27.45,21.33,36.32,36.15,8.88,14.83,13.33,30.62,13.33,47.37v297.22c0,17.48-4.44,33.58-13.33,48.3-8.87,14.73-20.98,26.74-36.32,36.02l-251.34,146.61c-15.96,9.17-32.52,13.76-49.68,13.76s-33.49-4.59-49.01-13.76l-251.95-146.61c-15.34-9.28-27.35-21.29-36.03-36.02-8.67-14.72-13.01-30.82-13.01-48.3v-297.22c0-16.75,4.34-32.54,13.01-47.37,8.68-14.82,20.69-26.87,36.03-36.15l135.99-79.32v67.96l-125.82,72.85v341.8l290.82,169.07,291.43-169.07v-341.8l-125.82-72.85ZM737.42,367.34v355.58c0,8.31-2.91,15.27-8.74,20.88-5.83,5.61-12.9,8.42-21.22,8.42s-15.27-2.81-20.86-8.42c-5.59-5.61-8.39-12.57-8.39-20.88V101.2c0-13.9,4.7-25.65,14.1-35.26,9.4-9.6,21.05-14.4,34.94-14.4h364.51c19.33,0,33.83,8.81,43.49,26.43,9.66,17.63,8.99,34.48-2.04,50.55l-35.52,53.29c-5.72,8.34-8.58,17.51-8.58,27.5s2.86,19.25,8.58,27.78l35.52,53.29c11.02,16.49,11.7,33.44,2.04,50.85-9.66,17.42-24.16,26.12-43.49,26.12h-354.34Z"/>
</svg>