<?xml version="1.0" encoding="UTF-8"?>
<svg id="Ebene_1" data-name="Ebene 1" xmlns="http://www.w3.org/2000/svg" viewBox="0 0 950.14 1082.63">
  <defs>
    <style>
      .cls-1 {
        fill: #2ea836;
      }
    </style>
  </defs>
  <path class="cls-1" d="M260.49,626.66l94.67,63.44,98.36-49.39c6.58-3.41,13.68-5.12,21.3-5.12s14.7,1.71,21.28,5.12l99.37,49.56,94.9-63.85-66.1-134.11c-3.13-6.27-7.83-11.36-14.11-15.29-6.27-3.91-12.93-5.87-19.98-5.87h-230.42c-7.45,0-14.12,1.96-20,5.87-5.88,3.92-10.19,9.02-12.93,15.29l-66.33,134.36h-.01ZM63,1026.18h823.28l-170.99-347.54-93.31,62.2c-7.48,5.21-15.24,8.1-23.28,8.67-8.03.57-16.05-1.3-24.05-5.61l-99.24-50.68-99.24,49.32c-8,4.32-16.01,6.2-24.02,5.63-8.01-.56-15.59-3.51-22.73-8.85l-94.84-62.2-171.57,349.07h-.01ZM47.36,1082.63c-17.35,0-30.65-7.41-39.91-22.23-9.25-14.82-9.89-30.09-1.9-45.8L275.55,466.55c8.11-15.84,19.62-28.44,34.52-37.81,14.91-9.38,31.47-14.06,49.68-14.06h87.72V47.34c0-13.45,4.43-24.7,13.28-33.75,8.87-9.06,20.02-13.59,33.46-13.59h257.3c8.52,0,15.05,3.68,19.58,11.04,4.54,7.35,4.85,15.08.93,23.19l-22.87,44.21c-2.04,3.64-3.06,7.38-3.06,11.24s1.02,7.4,3.06,10.64l22.87,44.21c3.91,8.32,3.66,16.1-.76,23.34-4.43,7.26-11.02,10.88-19.75,10.88h-247.61v235.94h82.96c17.99,0,34.26,4.75,48.83,14.26,14.56,9.51,25.96,21.98,34.2,37.42l274.59,548.23c8.11,15.72,7.51,30.98-1.82,45.8-9.31,14.82-22.9,22.23-40.76,22.23H47.35h0Z"/>
</svg>