<?xml version="1.0" encoding="UTF-8"?>
<svg id="Ebene_1" data-name="Ebene 1" xmlns="http://www.w3.org/2000/svg" viewBox="0 0 1200 1200">
  <defs>
    <style>
      .cls-1 {
        fill: #580259;
      }
    </style>
  </defs>
  <path class="cls-1" d="M187.1,1076.66c-24.69,0-45.57-8.53-62.62-25.58-17.06-17.06-25.58-37.92-25.58-62.59V260.92c0-24.67,8.53-45.54,25.58-62.59,17.06-17.06,37.93-25.58,62.62-25.58h840.73c24.69,0,45.57,8.53,62.62,25.58,17.06,17.06,25.58,37.92,25.58,62.59v727.57c0,24.67-8.53,45.54-25.58,62.59-17.06,17.06-37.93,25.58-62.62,25.58,0,0-840.73,0-840.73,0ZM187.35,1023.6h840.25c8.84,0,16.95-3.68,24.32-11.05,7.37-7.38,11.05-15.49,11.05-24.33V261.2c0-8.84-3.68-16.95-11.05-24.33-7.37-7.37-15.47-11.05-24.32-11.05H187.35c-8.84,0-16.95,3.68-24.32,11.05-7.37,7.38-11.05,15.49-11.05,24.33v727.02c0,8.84,3.68,16.95,11.05,24.33,7.37,7.37,15.47,11.05,24.32,11.05ZM339.75,862.63h535.98c7.06,0,13.2-2.6,18.43-7.79,5.22-5.2,7.83-11.45,7.83-18.74,0-7.3-2.61-13.55-7.83-18.74-5.22-5.19-11.36-7.79-18.43-7.79H339.75c-7.48,0-13.82,2.61-19.01,7.83-5.19,5.22-7.79,11.36-7.79,18.41,0,7.48,2.6,13.83,7.79,19.03,5.19,5.19,11.53,7.79,19.01,7.79ZM339.75,650.79h137.1c7.05,0,13.19-2.6,18.41-7.79,5.22-5.19,7.83-11.53,7.83-19.01v-210.95c0-7.05-2.61-13.19-7.83-18.43-5.22-5.22-11.36-7.83-18.41-7.83h-137.1c-7.48,0-13.82,2.61-19.01,7.83-5.19,5.23-7.79,11.37-7.79,18.43v210.95c0,7.48,2.6,13.82,7.79,19.01,5.19,5.19,11.53,7.79,19.01,7.79ZM661.7,650.79h214.04c7.06,0,13.2-2.6,18.43-7.79,5.22-5.19,7.83-11.44,7.83-18.74s-2.61-13.54-7.83-18.74c-5.22-5.19-11.36-7.79-18.43-7.79h-214.04c-7.48,0-13.82,2.61-19.01,7.83-5.19,5.22-7.79,11.36-7.79,18.43,0,7.48,2.6,13.82,7.79,19.01,5.19,5.19,11.53,7.79,19.01,7.79ZM661.7,439.85h214.04c7.06,0,13.2-2.6,18.43-7.79,5.22-5.19,7.83-11.44,7.83-18.74s-2.61-13.54-7.83-18.74c-5.22-5.19-11.36-7.79-18.43-7.79h-214.04c-7.48,0-13.82,2.61-19.01,7.83-5.19,5.23-7.79,11.37-7.79,18.43,0,7.48,2.6,13.82,7.79,19.01,5.19,5.19,11.53,7.79,19.01,7.79ZM151.98,1023.6V225.81v797.79Z"/>
</svg>