<?xml version="1.0" encoding="UTF-8"?>
<svg id="Ebene_1" data-name="Ebene 1" xmlns="http://www.w3.org/2000/svg" viewBox="0 0 1095.3 934.38">
  <defs>
    <style>
      .cls-1 {
        fill: #2ea836;
      }
    </style>
  </defs>
  <path class="cls-1" d="M91.66,817.53c-25.2,0-46.77-8.98-64.73-26.93-17.95-17.95-26.93-39.53-26.93-64.73V91.66c0-25.2,8.98-46.77,26.93-64.73C44.88,8.98,66.46,0,91.66,0h870.68c25.2,0,46.77,8.98,64.73,26.93,17.95,17.95,26.93,39.53,26.93,64.73v336.98c0,7.71-2.72,14.27-8.16,19.67-5.44,5.41-11.81,8.12-19.09,8.12-7.72,0-14.28-2.71-19.66-8.12-5.39-5.4-8.09-11.96-8.09-19.67V103.11l-446.39,293.63c-3.62,2.25-12.27,4.6-25.93,7.04-4.37,0-8.65-.46-12.85-1.37-4.2-.92-8.15-2.81-11.85-5.67L55.01,103.11v622.77c0,10.69,3.44,19.48,10.31,26.35s15.65,10.31,26.35,10.31h308.46c7.27,0,13.62,2.72,19.06,8.16,5.43,5.44,8.15,11.81,8.15,19.09,0,7.72-2.72,14.28-8.15,19.66-5.44,5.39-11.8,8.09-19.06,8.09H91.66ZM731.15,873.89l315.99-315.99c5.06-5.06,11.28-7.78,18.65-8.16,7.37-.39,14.22,2.4,20.57,8.35,5.96,6.34,8.94,13.01,8.94,20s-2.98,13.46-8.94,19.42l-322.61,322.6c-9.25,9.51-20.06,14.27-32.41,14.27s-23.07-4.76-32.2-14.27l-155.62-155.6c-5.4-5.02-8.29-11.22-8.67-18.59-.39-7.37,2.59-14.22,8.94-20.57,5.96-5.96,12.43-8.94,19.42-8.94s13.62,2.95,19.9,8.86l148.05,148.6v.02Z"/>
</svg>