<?xml version="1.0" encoding="UTF-8"?>
<svg id="Ebene_1" data-name="Ebene 1" xmlns="http://www.w3.org/2000/svg" viewBox="0 0 1200 1200">
  <defs>
    <style>
      .cls-1 {
        fill: #580259;
      }
    </style>
  </defs>
  <path class="cls-1" d="M124.71,941.85v-444.88,29.2V236.35v705.51ZM918.77,1039c-6.38,0-12.15-1.07-17.32-3.22-5.16-2.15-10.08-5.76-14.76-10.83l-141.12-140.62c-10.93-10.89-18.55-22.41-22.85-34.56-4.31-12.15-6.46-24.48-6.46-37.01,0-26.11,9.24-49.58,27.71-70.42,18.46-20.84,42.69-31.26,72.69-31.26,23.67,0,42.12,5.36,55.33,16.08,13.23,10.72,28.89,25.01,46.99,42.87,16.9-17.14,31.96-31.24,45.19-42.32,13.24-11.09,31.87-16.63,55.9-16.63,30.82,0,55.32,10.46,73.49,31.39,18.18,20.93,27.27,44.51,27.27,70.73,0,12.34-2.25,24.68-6.74,37.02-4.49,12.34-11.87,23.63-22.11,33.87l-140.84,140.84c-5.07,5.07-10.13,8.68-15.19,10.83-5.06,2.15-10.78,3.22-17.17,3.22ZM124.71,404.03h941.27v-131.13c0-9.14-3.81-17.52-11.42-25.14-7.61-7.61-15.99-11.42-25.13-11.42H161.26c-9.14,0-17.51,3.81-25.13,11.42-7.61,7.62-11.42,16-11.42,25.14v131.13ZM161.2,996.68c-25.64,0-47.27-8.81-64.9-26.43-17.62-17.62-26.43-39.19-26.43-64.72V272.67c0-25.52,8.81-47.1,26.43-64.72,17.62-17.62,39.19-26.43,64.7-26.43h868.68c25.51,0,47.08,8.81,64.7,26.43,17.62,17.62,26.43,39.27,26.43,64.95v220.63c0,14.4-5.68,24.97-17.05,31.69-11.38,6.71-23.59,7.25-36.65,1.62-22.78-9.6-46.48-16.98-71.09-22.14-24.62-5.16-50.43-7.74-77.41-7.74-30.82,0-60.71,3.58-89.68,10.74-28.97,7.16-56.32,17.38-82.06,30.68H124.71v366.91c0,9.14,3.81,17.52,11.42,25.14,7.61,7.61,15.99,11.42,25.13,11.42h359.78c7.3,0,13.64,2.7,19.04,8.09,5.4,5.4,8.09,11.74,8.09,19.04,0,7.73-2.7,14.28-8.09,19.65-5.4,5.37-11.74,8.05-19.04,8.05,0,0-359.84,0-359.84,0Z"/>
</svg>