<?xml version="1.0" encoding="UTF-8"?>
<svg id="Ebene_1" data-name="Ebene 1" xmlns="http://www.w3.org/2000/svg" viewBox="0 0 864.22 1082.4">
  <defs>
    <style>
      .cls-1 {
        fill: #2ea836;
      }
    </style>
  </defs>
  <path class="cls-1" d="M432.04,977.96c11.29,0,21.02-4.07,29.21-12.22,8.19-8.14,12.28-17.86,12.28-29.16s-4.07-21.02-12.22-29.21c-8.14-8.19-17.86-12.28-29.14-12.28s-21.02,4.07-29.21,12.22c-8.19,8.14-12.28,17.86-12.28,29.14s4.07,21.02,12.22,29.21c8.14,8.2,17.86,12.3,29.14,12.3ZM84.57,1082.39c-23.43,0-43.39-8.24-59.86-24.71-16.47-16.48-24.71-36.43-24.71-59.86V84.57c0-23.42,8.24-43.38,24.71-59.86C41.18,8.24,61.13,0,84.57,0h695.08c23.43,0,43.39,8.24,59.86,24.71,16.47,16.48,24.71,36.43,24.71,59.86v913.26c0,23.42-8.24,43.38-24.71,59.86-16.47,16.47-36.42,24.71-59.86,24.71H84.57ZM50.74,841.39v156.44c0,9.87,3.17,17.97,9.51,24.31,6.35,6.34,14.46,9.51,24.32,9.51h695.08c9.87,0,17.97-3.17,24.32-9.51,6.34-6.34,9.51-14.44,9.51-24.31v-156.44H50.74ZM50.74,790.66h762.74V185.62H50.74v605.03h0ZM50.74,134.89h762.74v-50.32c0-9.87-3.17-17.97-9.51-24.31-6.35-6.34-14.46-9.51-24.32-9.51H84.57c-9.87,0-17.97,3.17-24.32,9.51-6.34,6.34-9.51,14.44-9.51,24.31v50.32h0ZM50.74,134.89V50.75v84.14ZM50.74,841.39v190.26-190.26Z"/>
  <path class="cls-1" d="M326.85,626.78v-255.1c0-8.11,2.74-14.62,8.22-19.55,5.49-4.93,11.85-7.4,19.09-7.4,2.26,0,4.64.26,7.13.77,2.49.51,4.93,1.39,7.31,2.66l200.35,128.55c4.09,3.08,7.22,6.48,9.39,10.2,2.16,3.72,3.24,7.88,3.24,12.5s-1.08,8.78-3.24,12.5-5.29,7.01-9.39,9.86l-200.35,128.55c-2.39,1.49-4.83,2.49-7.31,2.99-2.49.51-4.79.77-6.92.77-7.38,0-13.82-2.47-19.3-7.4-5.48-4.93-8.22-11.56-8.22-19.89h0Z"/>
</svg>