<?xml version="1.0" encoding="UTF-8"?>
<svg id="Ebene_1" data-name="Ebene 1" xmlns="http://www.w3.org/2000/svg" viewBox="0 0 1149.87 1030.28">
  <defs>
    <style>
      .cls-1 {
        fill: #2ea836;
      }
    </style>
  </defs>
  <path class="cls-1" d="M554.58,976.46c7.81,0,15.82-1.84,24.01-5.52s15.11-8.34,20.76-13.98l442.92-442.92c17.15-17.15,30.4-33.37,39.75-48.64,9.34-15.27,14.01-32.9,14.01-52.89s-4.37-40.46-13.12-58.57c-8.75-18.1-21.16-35.51-37.23-52.22l-205.93-205.38c-14.42-14.65-29.99-25.4-46.69-32.23-16.72-6.84-34.34-10.26-52.87-10.26s-36.4,4.74-54.24,14.21c-17.85,9.48-33.73,21.35-47.64,35.63l-46.14,46.14,105.17,105.68c11.11,11.48,19.59,24.29,25.45,38.44,5.87,14.15,8.8,28.7,8.8,43.64,0,29.53-9.56,53.95-28.69,73.25-19.13,19.31-43.33,28.96-72.62,28.96-14.95,0-29.33-2.38-43.16-7.13-13.83-4.74-26.3-12.61-37.4-23.6l-81.12-78.26c-6.72-6.73-15.32-10.1-25.79-10.1s-19.07,3.37-25.8,10.1l-221.61,221.63c-6.51,6.65-11.39,13.84-14.64,21.57-3.26,7.75-4.88,15.42-4.88,23.02,0,13.72,4.41,25.03,13.24,33.94,8.82,8.9,20.11,13.35,33.86,13.35,7.63,0,15.65-1.99,24.05-5.96,8.41-3.98,15.26-8.5,20.57-13.54l162.74-163.29c4.96-4.96,11.1-7.56,18.44-7.8,7.35-.24,13.99,2.42,19.94,8,5.83,6.2,8.75,12.72,8.75,19.56s-2.87,13.11-8.62,18.8l-163.06,163.29c-6.62,6.62-11.53,13.77-14.72,21.46-3.2,7.7-4.8,15.46-4.8,23.29,0,13.04,4.57,24.13,13.72,33.26,9.13,9.13,20.4,13.7,33.8,13.7,7.83,0,15.92-2.02,24.27-6.05,8.36-4.03,14.99-8.51,19.91-13.44l176.78-176.53c4.95-5,11.09-7.71,18.44-8.13,7.35-.44,13.99,2.32,19.93,8.27,5.83,5.83,8.75,12.26,8.75,19.29s-2.87,13.39-8.6,19.08l-176.53,176.19c-6.13,6.02-10.91,13.06-14.34,21.14-3.44,8.07-5.16,15.95-5.16,23.64,0,13.39,4.48,24.56,13.43,33.51,8.95,8.96,20.09,13.44,33.43,13.44,7.78,0,15.54-1.63,23.28-4.88,7.74-3.26,14.93-8.13,21.59-14.64l176.19-176.51c4.95-5,11.09-7.61,18.44-7.86s13.99,2.42,19.93,7.99c5.83,6.21,8.75,12.73,8.75,19.56s-2.85,13.11-8.54,18.8l-176.19,176.76c-6.5,6.65-11.38,14.21-14.64,22.7-3.25,8.49-4.87,16.2-4.87,23.1,0,13.83,4.6,24.94,13.79,33.34,9.19,8.39,20.12,12.58,32.77,12.58l-.02.02ZM555.12,1030.27c-29.15,0-54.13-10.55-74.94-31.65-20.8-21.1-28.99-47.4-24.58-78.91-33.04.37-60.25-9.05-81.63-28.26s-31.51-46.83-30.39-82.86c-36.03.37-63.97-9.48-83.82-29.55-19.84-20.08-28.83-47.27-26.97-81.57-30.65,1.46-56.92-7.1-78.8-25.68-21.88-18.57-32.83-43.78-32.83-75.63,0-14.96,2.63-29.48,7.89-43.57,5.25-14.09,13.55-26.88,24.91-38.35l226-225.99c16.85-16.78,37.64-25.17,62.38-25.17s45.59,8.32,62.61,24.96l80.22,80.22c5.16,5.27,11.61,9.69,19.34,13.27,7.74,3.57,16.17,5.35,25.29,5.35,12.48,0,23.53-4.42,33.16-13.27,9.62-8.85,14.43-20.38,14.43-34.58,0-9.22-1.81-17.76-5.44-25.61-3.62-7.84-8-14.22-13.12-19.13l-197.97-197.96c-13.94-14.05-29-24.65-45.2-31.79-16.19-7.13-33.49-10.7-51.89-10.7s-35.52,3.27-51.62,9.81c-16.09,6.54-31.28,17.14-45.55,31.79l-169.43,169.04c-22.5,22.5-36.24,49.92-41.24,82.27-4.99,32.35-1.37,63.07,10.86,92.14,2.17,6.84,1.2,13.5-2.92,19.99-4.12,6.49-9.64,10.71-16.56,12.65s-13.64,1.01-20.17-2.81c-6.54-3.81-11.03-9.32-13.45-16.53C.53,413.32-3.14,373.75,2.67,333.49c5.82-40.25,23.81-75.46,53.96-105.63L229.43,55.06c18.06-17.94,38.22-31.6,60.49-40.98C312.2,4.69,337.19,0,364.89,0s50.54,5.2,72.77,15.6c22.23,10.39,43.42,25.64,63.59,45.74l50.83,50.8,50.83-50.8c19.9-20.11,41.19-35.35,63.88-45.74,22.68-10.4,47.15-15.6,73.41-15.6,29.97,0,56.39,5.44,79.27,16.33,22.88,10.87,43.29,25.27,61.25,43.18l204.44,203.96c20.82,21.19,36.8,44.27,47.96,69.26,11.17,24.99,16.75,51.64,16.75,79.93s-5.85,52.09-17.55,73.5c-11.7,21.42-28.32,43.08-49.85,64.98l-445.61,445.45c-12.11,12.11-24.96,20.75-38.54,25.93-13.59,5.17-27.98,7.75-43.19,7.76h0Z"/>
</svg>