<?xml version="1.0" encoding="UTF-8"?>
<svg id="Ebene_1" data-name="Ebene 1" xmlns="http://www.w3.org/2000/svg" viewBox="0 0 1150.21 771.62">
  <defs>
    <style>
      .cls-1 {
        fill: #2ea836;
      }
    </style>
  </defs>
  <path class="cls-1" d="M575.08,601.28c59.94,0,110.79-20.97,152.55-62.92,41.77-41.96,62.65-92.9,62.65-152.82s-20.97-110.79-62.92-152.55c-41.96-41.77-92.9-62.65-152.82-62.65s-110.79,20.97-152.55,62.92c-41.77,41.96-62.65,92.9-62.65,152.82s20.97,110.79,62.92,152.55c41.96,41.77,92.9,62.65,152.82,62.65h0ZM574.83,771.62c-117.63,0-225.54-31.18-323.72-93.55-98.17-62.37-177.47-143.97-237.9-244.8-5.04-7.98-8.5-15.85-10.38-23.61-1.89-7.77-2.83-15.75-2.83-23.93s.94-16.13,2.83-23.85c1.88-7.71,5.33-15.56,10.38-23.53,60.43-100.83,139.73-182.43,237.89-244.8C349.26,31.18,457.16,0,574.81,0s225.54,31.18,323.72,93.55c98.17,62.37,177.47,143.92,237.9,244.66,5.04,7.89,8.6,15.76,10.68,23.61,2.07,7.87,3.1,15.93,3.1,24.2s-1.03,16.27-3.1,23.99c-2.08,7.71-5.64,15.51-10.68,23.4-60.43,100.74-139.73,182.3-237.89,244.66-98.16,62.37-206.06,93.55-323.71,93.55ZM574.81,715.76c113.05,0,216.85-29.65,311.4-88.95,94.55-59.3,166.67-139.63,216.35-241-49.68-101.37-121.79-181.7-216.33-241-94.55-59.3-198.36-88.95-311.41-88.95s-216.85,29.65-311.4,88.95c-94.55,59.3-166.67,139.63-216.35,241,49.68,101.37,121.79,181.7,216.33,241,94.55,59.3,198.36,88.95,311.41,88.95Z"/>
</svg>